<?xml version="1.0" encoding="UTF-8" standalone="no"?>
<!-- Generator: Adobe Illustrator 24.2.1, SVG Export Plug-In . SVG Version: 6.00 Build 0)  -->

<svg
  enable-background="new 0 0 152.9 64.3"
  version="1.1"
  viewBox="0 0 152.9 64.3"
  xml:space="preserve"
  id="svg219"
  xmlns="http://www.w3.org/2000/svg"
  xmlns:svg="http://www.w3.org/2000/svg"
>
  <defs id="defs119">
    <clipPath id="clipPath23">
      <path d="M 0,420.033 H 610.171 V 0 H 0 Z" id="path116" />
    </clipPath>
  </defs>
  <style type="text/css" id="style121">
    .st0 {
      fill: none;
    }
    .st1 {
      fill: #6c6f70;
    }
    .st2 {
      fill: #2e3a8f;
    }
  </style>
  <rect class="st0" x=".3" y="2.4" width="147.4" height="56.7" id="rect123" />

  <g transform="matrix(0.14021,0,0,-0.14021,9.0767494,5.6601562)" id="g195" />
  <g
    id="g1758"
    transform="matrix(1.2260346,0,0,1.2260346,-1.0960103,-5.4904106)"
  >
    <g transform="matrix(0.14021,0,0,-0.14021,39.314017,11.093294)" id="g127">
      <path
        d="m 0,0 c 0,13.395 10.81,23.739 24.403,23.739 2.586,0 4.974,-0.132 7.096,-0.464 v -6.1 H 31.034 C 30.902,18.302 28.78,19.363 24.801,19.363 13.395,19.363 4.842,11.008 4.842,0 c 0,-10.875 8.686,-19.429 20.423,-19.429 3.913,0 5.504,0.663 5.769,1.724 h 0.465 v -5.636 c -1.592,-0.399 -3.78,-0.597 -6.101,-0.597 C 10.61,-23.938 0,-13.992 0,0 m 28.514,33.686 1.924,-2.785 -8.157,-5.769 h -0.066 l -8.156,5.504 2.122,2.785 6.034,-4.377 z"
        fill="#333e91"
        id="path125"
        style="fill: #2526a9; fill-opacity: 1"
      />
    </g>
    <g transform="matrix(0.14021,0,0,-0.14021,47.188211,13.705406)" id="g131">
      <path
        d="m 0,0 c 0.663,0 2.255,0.133 2.255,1.061 h 0.398 v -5.636 h -20.159 v 0.397 c 0.928,0 1.061,1.592 1.061,2.255 V 39.19 c 0,0.663 -0.133,2.255 -1.061,2.255 v 0.398 H 2.653 V 36.206 H 2.255 c 0,0.929 -1.592,1.061 -2.255,1.061 H -11.605 V 22.745 H 0 c 0.663,0 2.255,0.133 2.255,1.061 H 2.653 V 17.108 H 2.255 c 0,0.929 -1.592,1.061 -2.255,1.061 H -11.605 V 0 Z"
        fill="#333e91"
        id="path129"
        style="fill: #2526a9; fill-opacity: 1"
      />
    </g>
    <g transform="matrix(0.14021,0,0,-0.14021,49.75826,14.468148)" id="g135">
      <path
        d="m 0,0 c -3.117,0 -5.836,0.53 -7.759,1.061 v 6.101 h 0.398 c 0,-0.465 1.724,-2.719 6.631,-2.719 6.101,0 9.483,3.315 9.483,7.758 0,9.217 -16.313,14.589 -16.313,25.596 0,6.167 4.111,10.477 11.339,10.477 3.249,0 5.371,-0.397 7.294,-0.928 v -5.968 h -0.397 c 0,0.862 -1.791,2.52 -6.565,2.52 -3.913,0 -6.632,-2.387 -6.632,-5.902 0,-7.758 16.313,-13.859 16.313,-25.463 C 13.792,4.575 7.625,0 0,0"
        fill="#333e91"
        id="path133"
        style="fill: #2526a9; fill-opacity: 1"
      />
    </g>
    <g transform="matrix(0.14021,0,0,-0.14021,52.624153,14.347568)" id="g139">
      <path
        d="m 0,0 v 0.398 c 0.928,0 1.061,1.591 1.061,2.254 V 43.765 C 1.061,44.429 0.928,46.02 0,46.02 v 0.398 H 6.963 V 46.02 c -0.929,0 -1.061,-1.591 -1.061,-2.255 V 2.652 c 0,-0.663 0.132,-2.254 1.061,-2.254 V 0 Z m 19.827,43.765 c 0.796,1.194 0.863,2.255 -0.198,2.255 v 0.398 h 8.156 V 46.02 c -0.928,0 -2.056,-1.591 -2.454,-2.255 L 13.926,26.458 c -0.199,-0.265 -0.465,-0.663 -0.73,-0.928 0.199,-0.199 0.531,-0.531 0.663,-0.796 L 27.187,2.652 C 27.586,1.989 28.713,0.398 29.641,0.398 V 0 h -8.156 v 0.398 c 1.061,0 0.199,1.591 -0.199,2.254 L 8.554,23.806 C 8.156,24.469 7.56,24.8 7.227,24.933 Z"
        fill="#333e91"
        id="path137"
        style="fill: #2526a9; fill-opacity: 1"
      />
    </g>
    <g transform="matrix(0.14021,0,0,-0.14021,57.363251,14.004053)" id="g143">
      <path
        d="m 0,0 c -0.331,-0.995 -0.133,-2.056 0.664,-2.056 v -0.397 h -7.295 v 0.397 c 0.464,0 1.194,0.862 1.591,2.122 L 8.621,41.113 c 0.265,0.862 0.398,2.254 -0.266,2.454 v 0.398 h 10.743 v -0.398 c -0.663,-0.2 -0.53,-1.592 -0.265,-2.454 L 31.631,0.066 c 0.265,-0.862 0.929,-2.122 1.591,-2.122 v -0.397 h -7.559 v 0.397 c 0.796,0 0.995,1.061 0.663,2.056 L 22.878,11.273 H 3.714 Z m 14.39,38.859 c -0.199,0.596 -0.464,1.259 -0.663,2.586 H 13.461 C 13.263,40.118 12.997,39.521 12.798,38.859 L 5.106,15.517 H 21.552 Z M 19.164,54.309 20.69,50.463 8.422,46.02 6.964,49.004 Z"
        fill="#333e91"
        id="path141"
        style="fill: #2526a9; fill-opacity: 1"
      />
    </g>
    <g transform="matrix(0.14021,0,0,-0.14021,44.365784,21.918908)" id="g147">
      <path
        d="M 0,0 H 0.265 C 0.199,0.531 0.199,1.26 0.199,1.989 v 34.084 c 0,0.664 -0.133,2.255 -1.061,2.255 v 0.399 H 6.101 V 38.328 C 5.172,38.328 5.04,36.737 5.04,36.073 V -7.692 h -5.902 c 0,0.53 -0.199,1.061 -0.531,1.658 l -22.678,38.261 c -0.597,0.995 -1.062,2.056 -1.26,2.918 h -0.265 c 0.066,-0.53 0.066,-1.26 0.066,-1.923 V -5.04 c 0,-0.662 0.132,-2.254 1.061,-2.254 v -0.398 h -6.962 v 0.398 c 0.927,0 1.061,1.592 1.061,2.254 v 41.113 c 0,0.664 -0.134,2.255 -1.061,2.255 v 0.399 h 10.012 v -0.266 c -0.331,-0.465 -0.264,-1.128 0.863,-3.051 L -1.989,4.111 C -0.729,2.056 -0.265,0.862 0,0"
        fill="#333e91"
        id="path145"
        style="fill: #2526a9; fill-opacity: 1"
      />
    </g>
    <g transform="matrix(0.14021,0,0,-0.14021,46.60634,22.652206)" id="g151">
      <path
        d="m 0,0 c -0.331,-0.995 -0.132,-2.056 0.664,-2.056 v -0.398 h -7.295 v 0.398 c 0.464,0 1.194,0.862 1.591,2.122 L 8.621,41.113 c 0.265,0.863 0.398,2.255 -0.266,2.454 v 0.398 h 10.743 v -0.398 c -0.663,-0.199 -0.53,-1.591 -0.265,-2.454 L 31.631,0.066 c 0.265,-0.862 0.929,-2.122 1.591,-2.122 v -0.398 h -7.559 v 0.398 c 0.796,0 0.995,1.061 0.663,2.056 L 22.878,11.273 H 3.714 Z m 14.391,38.859 c -0.2,0.596 -0.465,1.259 -0.664,2.586 H 13.461 C 13.263,40.118 12.997,39.522 12.798,38.859 L 5.106,15.517 h 16.446 z m 4.773,15.45 1.525,-3.846 L 8.422,46.02 6.964,49.004 Z"
        fill="#333e91"
        id="path149"
        style="fill: #2526a9; fill-opacity: 1"
      />
    </g>
    <g transform="matrix(0.14021,0,0,-0.14021,54.943226,22.718105)" id="g155">
      <path
        d="m 0,0 -7.626,12.665 c -1.857,3.117 -3.316,5.371 -6.432,5.371 h -1.923 V 0.662 c 0,-0.662 0.132,-2.254 1.061,-2.254 V -1.99 h -6.962 v 0.398 c 0.927,0 1.061,1.592 1.061,2.254 v 41.113 c 0,0.664 -0.134,2.255 -1.061,2.255 v 0.399 h 9.415 c 9.881,0 14.788,-6.5 14.788,-12.998 0,-5.239 -3.249,-10.478 -9.615,-12.135 v -0.265 c 1.657,-0.995 3.05,-2.653 5.106,-5.968 L 5.438,0.662 C 5.836,0 7.095,-1.592 7.56,-1.592 V -1.99 H 0.331 C 0.331,-0.929 0.265,-0.465 0,0 m -2.52,31.165 c 0,4.377 -3.249,8.687 -9.416,8.687 h -4.045 V 22.214 h 3.315 c 6.83,0 10.146,4.509 10.146,8.951"
        fill="#333e91"
        id="path153"
        style="fill: #2526a9; fill-opacity: 1"
      />
    </g>
    <g transform="matrix(0.14021,0,0,-0.14021,62.980063,19.742849)" id="g159">
      <path
        d="m 0,0 c 0,-13.395 -10.809,-24.204 -24.204,-24.204 -13.395,0 -24.204,10.809 -24.204,24.204 0,7.095 2.985,13.394 7.825,17.837 4.311,3.979 10.079,6.366 16.379,6.366 C -10.809,24.203 0,13.394 0,0 m -43.699,0 c 0,-10.809 8.687,-19.496 19.495,-19.496 10.809,0 19.496,8.687 19.496,19.496 0,10.809 -8.687,19.495 -19.496,19.495 -10.808,0 -19.495,-8.686 -19.495,-19.495"
        fill="#333e91"
        id="path157"
        style="fill: #2526a9; fill-opacity: 1"
      />
    </g>
    <g transform="matrix(0.14021,0,0,-0.14021,63.96574,22.941039)" id="g163">
      <path
        d="m 0,0 c 0.928,0 1.061,1.592 1.061,2.255 v 41.113 c 0,0.664 -0.133,2.254 -1.061,2.254 v 0.399 h 9.946 c 16.512,0 24.138,-10.61 24.138,-23.209 0,-14.722 -10.809,-23.21 -26.326,-23.21 H 0 Z m 29.111,22.812 c 0,10.676 -6.565,18.832 -18.634,18.832 H 6.034 V 3.979 h 2.52 c 11.605,0 20.557,7.493 20.557,18.833"
        fill="#333e91"
        id="path161"
        style="fill: #2526a9; fill-opacity: 1"
      />
    </g>
    <g transform="matrix(0.14021,0,0,-0.14021,74.090304,21.918908)" id="g167">
      <path
        d="M 0,0 H 0.265 C 0.199,0.531 0.199,1.26 0.199,1.989 v 34.084 c 0,0.664 -0.133,2.255 -1.061,2.255 v 0.399 H 6.101 V 38.328 C 5.172,38.328 5.04,36.737 5.04,36.073 V -7.692 h -5.902 c 0,0.53 -0.199,1.061 -0.53,1.658 l -22.679,38.261 c -0.597,0.995 -1.06,2.056 -1.26,2.918 h -0.265 c 0.066,-0.53 0.066,-1.26 0.066,-1.923 V -5.04 c 0,-0.662 0.133,-2.254 1.061,-2.254 v -0.398 h -6.962 v 0.398 c 0.928,0 1.061,1.592 1.061,2.254 v 41.113 c 0,0.664 -0.133,2.255 -1.061,2.255 v 0.399 h 10.013 v -0.266 c -0.332,-0.465 -0.265,-1.128 0.862,-3.051 L -1.989,4.111 C -0.729,2.056 -0.264,0.862 0,0"
        fill="#333e91"
        id="path165"
        style="fill: #2526a9; fill-opacity: 1"
      />
    </g>
    <g transform="matrix(0.14021,0,0,-0.14021,77.997956,15.038803)" id="g171">
      <path
        d="m 0,0 1.525,-3.846 -12.268,-4.443 -1.458,2.984 z m -5.504,-54.11 c 0,-0.663 0.133,-2.255 1.061,-2.255 v -0.398 h -6.962 v 0.398 c 0.928,0 1.061,1.592 1.061,2.255 v 41.113 c 0,0.664 -0.133,2.255 -1.061,2.255 v 0.398 h 6.962 v -0.398 c -0.928,0 -1.061,-1.591 -1.061,-2.255 z"
        fill="#333e91"
        id="path169"
        style="fill: #2526a9; fill-opacity: 1"
      />
    </g>
    <g transform="matrix(0.14021,0,0,-0.14021,43.510503,29.83236)" id="g175">
      <path
        d="m 0,0 c 0,-7.692 -5.769,-12.931 -14.257,-12.931 h -11.074 v 0.398 c 0.928,0 1.061,1.592 1.061,2.255 v 41.113 c 0,0.664 -0.133,2.254 -1.061,2.254 v 0.399 h 11.074 c 7.427,0 12.997,-5.106 12.997,-11.406 0,-5.172 -3.05,-9.284 -8.355,-10.08 V 11.804 C -3.978,11.007 0,6.034 0,0 m -6.3,21.617 c 0,4.377 -3.249,7.494 -7.825,7.494 H -19.43 V 14.323 h 5.305 c 4.311,0 7.825,3.25 7.825,7.294 M -19.43,9.814 V -8.554 h 5.305 c 6.036,0 9.02,3.448 9.02,9.151 0,5.769 -5.106,9.217 -10.677,9.217 z"
        fill="#333e91"
        id="path173"
        style="fill: #2526a9; fill-opacity: 1"
      />
    </g>
    <g transform="matrix(0.14021,0,0,-0.14021,44.724721,31.301761)" id="g179">
      <path
        d="m 0,0 c -0.332,-0.995 -0.133,-2.056 0.663,-2.056 v -0.398 h -7.294 v 0.398 c 0.464,0 1.193,0.862 1.591,2.122 L 8.621,41.113 c 0.265,0.863 0.398,2.255 -0.266,2.454 v 0.398 H 19.098 V 43.567 C 18.434,43.368 18.567,41.976 18.833,41.113 L 31.631,0.066 c 0.265,-0.862 0.929,-2.122 1.591,-2.122 v -0.398 h -7.56 v 0.398 c 0.797,0 0.995,1.061 0.664,2.056 L 22.878,11.273 H 3.713 Z m 14.39,38.859 c -0.2,0.596 -0.464,1.259 -0.663,2.586 H 13.461 C 13.263,40.118 12.997,39.522 12.798,38.859 L 5.106,15.517 h 16.445 z"
        fill="#333e91"
        id="path177"
        style="fill: #2526a9; fill-opacity: 1"
      />
    </g>
    <g transform="matrix(0.14021,0,0,-0.14021,54.43146,30.567061)" id="g183">
      <path
        d="M 0,0 H 0.265 C 0.199,0.531 0.199,1.26 0.199,1.989 v 34.084 c 0,0.664 -0.133,2.255 -1.061,2.255 v 0.399 H 6.101 V 38.328 C 5.172,38.328 5.04,36.737 5.04,36.073 V -7.692 h -5.902 c 0,0.53 -0.199,1.061 -0.53,1.658 l -22.679,38.261 c -0.597,0.995 -1.06,2.056 -1.26,2.918 h -0.265 c 0.066,-0.53 0.066,-1.26 0.066,-1.923 V -5.04 c 0,-0.662 0.133,-2.254 1.061,-2.254 v -0.398 h -6.962 v 0.398 c 0.928,0 1.061,1.592 1.061,2.254 v 41.113 c 0,0.664 -0.133,2.255 -1.061,2.255 v 0.399 h 10.013 v -0.266 c -0.332,-0.465 -0.266,-1.128 0.862,-3.051 L -1.989,4.111 C -0.729,2.056 -0.264,0.862 0,0"
        fill="#333e91"
        id="path181"
        style="fill: #2526a9; fill-opacity: 1"
      />
    </g>
    <g transform="matrix(0.14021,0,0,-0.14021,56.737914,31.645276)" id="g187">
      <path
        d="m 0,0 v 0.398 c 0.928,0 1.06,1.592 1.06,2.255 V 43.766 C 1.06,44.43 0.928,46.02 0,46.02 v 0.399 H 6.963 V 46.02 c -0.93,0 -1.062,-1.59 -1.062,-2.254 V 2.653 C 5.901,1.99 6.033,0.398 6.963,0.398 V 0 Z m 19.827,43.766 c 0.795,1.193 0.861,2.254 -0.199,2.254 v 0.399 h 8.156 V 46.02 c -0.929,0 -2.056,-1.59 -2.454,-2.254 L 13.925,26.459 c -0.199,-0.266 -0.464,-0.663 -0.729,-0.929 0.198,-0.199 0.53,-0.531 0.663,-0.795 L 27.187,2.653 C 27.585,1.99 28.713,0.398 29.641,0.398 V 0 h -8.156 v 0.398 c 1.061,0 0.198,1.592 -0.199,2.255 L 8.554,23.806 c -0.399,0.663 -0.995,0.995 -1.327,1.127 z"
        fill="#333e91"
        id="path185"
        style="fill: #2526a9; fill-opacity: 1"
      />
    </g>
    <g transform="matrix(0.14021,0,0,-0.14021,61.477012,31.301761)" id="g191">
      <path
        d="M 0,0 C -0.332,-0.995 -0.133,-2.056 0.664,-2.056 V -2.454 H -6.63 v 0.398 c 0.463,0 1.192,0.862 1.59,2.122 L 8.621,41.113 c 0.265,0.863 0.398,2.255 -0.266,2.454 v 0.398 H 19.098 V 43.567 C 18.434,43.368 18.567,41.976 18.833,41.113 L 31.631,0.066 c 0.265,-0.862 0.929,-2.122 1.591,-2.122 v -0.398 h -7.56 v 0.398 c 0.797,0 0.995,1.061 0.664,2.056 L 22.878,11.273 H 3.714 Z m 14.39,38.859 c -0.2,0.596 -0.464,1.259 -0.663,2.586 H 13.462 C 13.263,40.118 12.997,39.522 12.798,38.859 L 5.106,15.517 h 16.445 z"
        fill="#333e91"
        id="path189"
        style="fill: #2526a9; fill-opacity: 1"
      />
    </g>
    <path
      d="m 0,0 21.455,-15.438 h -1.478 c -13.863,-1.133 -25.695,-5.423 -36.35,-17.018 -8.138,-8.825 -14.157,-22.787 -13.809,-38.767 0.247,-14.596 9.371,-39.357 34.426,-48.385 7.988,-2.909 17.756,-3.895 29.049,-3.895 l 29.248,0.098 v 1.333 c -1.825,0.639 -2.611,0.593 -2.611,3.554 l -0.199,81.722 0.838,0.1 c 0.688,-2.27 2.761,-5.031 3.5,-6.261 l 49.373,-80.791 h 17.161 v 108.16 h -20.22 l 0.05,-1.287 c 1.475,-0.192 3.009,-1.921 3.009,-3.75 v -70.229 l -0.838,-0.053 c -1.086,3.407 -2.716,5.38 -3.455,6.615 l -42.369,68.801 -26.73,0.05 v -1.283 c 1.677,-0.542 2.664,-1.973 2.862,-4.095 l 0.145,-87.446 c -10.111,0.44 -22.44,-0.738 -31.859,2.664 -14.452,5.376 -24.857,21.503 -24.513,36.694 0.297,14.798 8.089,27.03 20.565,33.887 6.81,3.797 19.187,5.47 24.71,4.194 2.026,-0.495 2.763,-0.844 3.503,-2.521 h 1.283 l -0.05,17.954 H 26.095 L 47.942,-0.79 41.727,8.283 24.02,-3.755 7.152,8.43 0,-0.003 m 133.96,-123.7 -0.098,108.16 h 34.915 c 16.478,-0.046 31.863,-10.944 31.616,-28.16 -0.146,-8.813 -5.274,-18.47 -16.81,-22.276 v -0.439 c 5.843,-1.291 11.68,-4.992 15.147,-9.62 4.011,-5.352 5.779,-11.945 5.314,-17.481 -0.787,-9.472 -4.786,-18.545 -13.662,-24.313 -5.719,-3.651 -13.365,-5.969 -23.921,-5.969 z m 16.865,92.876 h 16.424 c 6.462,0 16.423,-2.521 16.572,-13.518 0,-7.004 -5.226,-13.216 -15.978,-14.599 l -0.048,-15.491 c 10.553,-0.739 19.285,-7.298 19.181,-16.767 -0.095,-10.112 -6.706,-17.16 -19.923,-17.212 h -16.325 z"
      fill="#7c7b7b"
      fill-rule="evenodd"
      id="path193"
      style="fill: #6c6f70; fill-opacity: 1"
      transform="matrix(0.14021,0,0,-0.14021,9.0767494,5.6601562)"
    />
    <path
      d="M 35.800355,49.529061 H 21.604092 v -4.282574 h 14.196263 z"
      fill="#7c7b7b"
      id="path197"
      style="fill: #6c6f70; fill-opacity: 1; stroke-width: 0.14021"
    />
    <g transform="matrix(0.14021,0,0,-0.14021,13.226545,33.571761)" id="g201">
      <path d="M 0,0 H 1.206" fill="#1e1f1d" id="path199" />
    </g>
    <g transform="matrix(0.14021,0,0,-0.14021,28.695914,38.125782)" id="g205">
      <path
        d="m 0,0 c -15.67,0 -28.374,12.704 -28.374,28.373 0,15.672 12.704,28.376 28.374,28.376 15.672,0 28.376,-12.704 28.376,-28.376 C 28.376,12.704 15.672,0 0,0 m 0,92.832 c -35.6,0 -64.459,-28.859 -64.459,-64.459 0,-35.6 28.859,-64.458 64.459,-64.458 35.599,0 64.46,28.858 64.46,64.458 0,35.6 -28.861,64.459 -64.46,64.459"
        fill="#333e91"
        id="path203"
        style="fill: #2526a9; fill-opacity: 1"
      />
    </g>
    <g transform="matrix(0.14021,0,0,-0.14021,6.1408922,30.778778)" id="g209">
      <path
        d="M 0,0 H -1.927 V 35.505 H 90.385 V 6.605 L 58.349,-41.56 c 0,0 10.623,-4.72 21.027,-15.247 10.404,-10.528 20.587,-26.863 20.587,-46.349 0,-63.288 -68.587,-83.229 -68.587,-83.229 l -10.899,29.505 c 0,0 42.495,12.77 42.495,50.862 0,18.001 -13.015,29.815 -22.678,36 -8.257,5.284 -27.523,13.541 -27.523,13.541 L 49.541,6.385 H 11.339 C 0.926,6.385 0,0 0,0"
        fill="#333e91"
        id="path207"
        style="fill: #2526a9; fill-opacity: 1"
      />
    </g>
    <g transform="matrix(0.14021,0,0,-0.14021,13.212524,33.596999)" id="g213">
      <path d="M 0,0 H 1.206" fill="#1e1f1d" id="path211" />
    </g>
  </g>
</svg>
