<svg viewBox="0 0 2103 1325" fill="none" xmlns="http://www.w3.org/2000/svg">
  <path
    d="M1710.97 366.96C1649.77 253.731 1390.73 259.92 1214.62 324.09C1011.69 398.054 967.913 531.161 803.034 553.862C652.584 574.613 612.154 474.297 503.199 494.864C403.067 513.768 271.386 629.779 118.467 1027.12"
    stroke="#2526A9"
    stroke-opacity="0.52"
    stroke-width="5"
    stroke-miterlimit="10"
  />
  <path
    d="M134.763 1037.14C286.045 645.34 417.062 526.888 517.687 504.735C592.287 488.387 635.535 528.724 703.875 548.009C738.175 558.248 777.248 560.819 817.584 555.491C949.729 538.111 1005.31 453.162 1129.86 381.008C1161.58 362.542 1195.15 346.656 1229.85 333.675C1406.07 267.3 1659.29 251.764 1722.75 359.28"
    stroke="#2526A9"
    stroke-opacity="0.52"
    stroke-width="5"
    stroke-miterlimit="10"
  />
  <path
    d="M151.073 1047.11C300.725 660.867 430.999 540.023 531.923 514.714C606.11 496.114 650.258 533.478 718.093 550.73C752.839 560.005 791.745 562.224 831.845 557.219C962.341 540.913 1019.7 461.804 1145.08 390.661C1176.93 372.529 1210.36 356.681 1244.83 343.368C1421.32 275.175 1668.56 249.883 1734.28 351.687"
    stroke="#2526A9"
    stroke-opacity="0.52"
    stroke-width="5"
    stroke-miterlimit="10"
  />
  <path
    d="M167.339 1057.04C315.323 676.443 444.947 553.198 546.265 524.63C620.111 503.799 665.029 538.189 732.454 553.398C767.58 561.72 806.296 563.605 846.133 558.934C975.095 543.661 1033.97 470.463 1160.33 400.301C1192.3 382.444 1225.63 366.596 1259.9 352.955C1436.56 282.724 1677.9 247.906 1745.87 343.998"
    stroke="#2526A9"
    stroke-opacity="0.52"
    stroke-width="5"
    stroke-miterlimit="10"
  />
  <path
    d="M183.635 1067.08C329.97 691.978 458.842 566.415 560.64 534.556C634.065 511.547 679.898 542.911 746.863 556.024C782.394 563.395 820.987 564.94 860.621 560.579C988.049 546.338 1048.54 479.042 1175.92 409.818C1207.96 392.317 1241.12 376.525 1275.12 362.583C1451.97 290.304 1687.41 245.981 1757.66 336.351"
    stroke="#2526A9"
    stroke-opacity="0.52"
    stroke-width="5"
    stroke-miterlimit="10"
  />
  <path
    d="M199.801 1077.12C344.586 707.518 472.189 577.56 575.007 544.454C648.381 520.764 694.72 547.479 761.22 558.685C797.131 565.078 835.6 566.281 875.022 562.246C1000.92 549.038 1062.96 487.663 1191.18 419.471C1223.29 402.26 1256.33 386.485 1290.09 372.243C1467.1 297.83 1696.67 244.065 1769.18 328.744"
    stroke="#2526A9"
    stroke-opacity="0.52"
    stroke-width="5"
    stroke-miterlimit="10"
  />
  <path
    d="M216.224 1087.06C359.235 723.07 486.671 592.983 589.311 554.257C661.886 527.171 709.637 552.152 775.611 561.356C811.865 566.777 850.216 567.645 889.428 563.934C1013.79 551.759 1077.46 496.253 1206.54 429.081C1238.75 412.186 1271.67 396.44 1305.18 381.903C1482.4 305.44 1706.04 242.085 1780.83 321.116"
    stroke="#2526A9"
    stroke-opacity="0.52"
    stroke-width="5"
    stroke-miterlimit="10"
  />
  <path
    d="M232.503 1097.06C373.792 738.631 500.52 606.16 603.716 564.28C675.785 534.951 724.553 556.614 789.989 563.984C826.557 568.426 864.803 568.948 903.807 565.537C1026.61 554.426 1091.93 504.832 1221.89 438.607C1252.13 423.225 1284.56 407.254 1320.25 391.457C1497.66 312.87 1715.43 240.167 1792.46 313.444"
    stroke="#2526A9"
    stroke-opacity="0.52"
    stroke-width="5"
    stroke-miterlimit="10"
  />
  <path
    d="M248.776 1107.06C388.493 754.158 514.436 619.563 618.035 574.139C689.688 542.745 739.5 561.081 804.414 566.564C841.295 570.018 879.463 570.213 918.283 567.144C1039.55 557.066 1106.45 513.341 1237.33 448.158C1267.8 432.975 1300.16 417.076 1335.44 401.024C1512.81 320.427 1724.81 238.216 1804.09 305.763"
    stroke="#2526A9"
    stroke-opacity="0.52"
    stroke-width="5"
    stroke-miterlimit="10"
  />
  <path
    d="M265.072 1117.02C403.132 769.683 528.34 632.923 632.416 584.091C703.629 550.663 754.605 565.537 818.716 569.256C855.863 571.729 893.952 571.604 932.578 568.884C1052.34 559.828 1120.85 522.005 1252.59 457.726C1283.14 442.794 1315.52 426.885 1350.42 410.599C1528.14 327.731 1734.15 236.137 1815.69 297.994"
    stroke="#2526A9"
    stroke-opacity="0.52"
    stroke-width="5"
    stroke-miterlimit="10"
  />
  <path
    d="M281.341 1127.02C417.737 785.216 542.252 646.321 646.688 594.006C717.468 558.564 769.479 569.975 833.043 571.932C870.441 573.395 908.473 572.935 946.913 570.556C1065.12 562.543 1135.23 530.6 1267.92 467.424C1298.71 452.735 1331 436.834 1365.48 420.345C1543.35 335.279 1743.48 234.311 1827.33 290.436"
    stroke="#2526A9"
    stroke-opacity="0.52"
    stroke-width="5"
    stroke-miterlimit="10"
  />
  <path
    d="M297.606 1137.02C432.373 800.758 556.219 659.695 661.099 603.867C731.483 566.421 784.545 574.316 847.446 574.551C883.602 574.677 920.568 574.632 961.361 572.182C1078.03 565.181 1149.75 539.16 1283.34 476.972C1314.29 462.524 1346.52 446.622 1380.67 429.899C1558.7 342.633 1752.96 232.279 1839.05 282.725"
    stroke="#2526A9"
    stroke-opacity="0.52"
    stroke-width="5"
    stroke-miterlimit="10"
  />
  <path
    d="M313.87 1147.01C447.029 816.36 569.996 673.179 675.431 613.774C745.411 574.304 799.597 578.609 861.821 577.176C898.54 576.334 935.489 575.922 975.753 573.823C1090.91 567.917 1164.19 547.725 1298.69 486.535C1329.83 472.349 1362.02 456.435 1395.69 439.508C1573.83 350.009 1762.28 230.3 1850.63 275.055"
    stroke="#2526A9"
    stroke-opacity="0.52"
    stroke-width="5"
    stroke-miterlimit="10"
  />
  <path
    d="M330.071 1157.03C461.604 831.824 584.091 686.568 689.758 623.677C759.354 582.245 814.638 582.877 876.198 579.816C913.496 577.953 950.405 577.207 990.03 575.52C1103.66 570.574 1178.52 556.368 1314.06 496.134C1345.39 482.158 1377.49 466.253 1410.78 449.134C1589.04 357.349 1771.65 228.291 1862.27 267.356"
    stroke="#2526A9"
    stroke-opacity="0.52"
    stroke-width="5"
    stroke-miterlimit="10"
  />
  <path
    d="M346.405 1166.98C476.224 847.337 597.995 700.065 704.104 633.542C773.339 590.115 829.687 587.062 890.531 582.415C928.402 579.511 965.343 578.45 1004.52 577.085C1116.56 573.192 1193.09 564.847 1329.4 505.661C1362.19 491.136 1394.39 475.432 1425.86 458.613C1604.22 364.666 1781.13 226.28 1873.9 259.621"
    stroke="#2526A9"
    stroke-opacity="0.52"
    stroke-width="5"
    stroke-miterlimit="10"
  />
  <path
    d="M362.653 1176.97C490.845 862.87 612.104 713.414 718.329 643.443C787.209 598.042 844.637 591.252 904.922 585.009C943.36 581.042 980.274 579.688 1018.9 578.704C1129.44 575.835 1207.55 573.404 1344.69 515.224C1377.55 501.025 1409.68 485.339 1440.89 468.263C1619.36 371.85 1790.41 224.277 1885.53 251.801"
    stroke="#2526A9"
    stroke-opacity="0.52"
    stroke-width="5"
    stroke-miterlimit="10"
  />
  <path
    d="M378.896 1186.97C505.425 878.388 626.254 726.903 732.753 653.264C801.233 605.95 859.743 595.328 919.247 587.591C958.244 582.54 995.152 580.956 1033.25 580.324C1142.23 578.497 1221.97 581.94 1360.1 524.736C1393.02 510.837 1425.09 495.144 1456.02 477.799C1634.51 379.178 1799.79 222.247 1897.19 244.143"
    stroke="#2526A9"
    stroke-opacity="0.52"
    stroke-width="5"
    stroke-miterlimit="10"
  />
  <path
    d="M395.025 1196.96C519.934 893.901 640.031 740.26 746.953 662.969C815.171 613.632 874.648 599.191 933.48 589.99C973.144 583.769 1009.96 581.984 1047.54 581.724C1154.98 580.888 1236.33 590.293 1375.39 534.065C1408.37 520.449 1440.38 504.743 1471.05 487.136C1649.61 386.147 1809.13 219.865 1908.82 236.071"
    stroke="#2526A9"
    stroke-opacity="0.52"
    stroke-width="5"
    stroke-miterlimit="10"
  />
  <path
    d="M411.112 1206.96C534.227 909.276 653.982 753.593 761.191 672.718C829.103 621.418 889.533 603.113 947.772 592.489C987.919 585.232 1024.87 583.122 1061.86 583.234C1167.8 583.474 1250.75 598.75 1390.7 543.446C1423.73 530.115 1455.69 514.393 1486.09 496.525C1664.71 393.143 1818.67 217.552 1920.46 228.053"
    stroke="#2526A9"
    stroke-opacity="0.52"
    stroke-width="5"
    stroke-miterlimit="10"
  />
  <path
    d="M427.19 1216.95C548.805 924.668 667.954 766.916 775.347 682.327C843.004 629.02 904.346 606.816 961.979 594.724C1002.64 586.21 1039.6 584.026 1076.11 584.521C1180.49 585.806 1265.07 606.982 1405.97 552.697C1439.05 539.66 1470.97 523.918 1501.09 505.782C1679.72 399.952 1827.82 215.05 1932.05 219.844"
    stroke="#2526A9"
    stroke-opacity="0.52"
    stroke-width="5"
    stroke-miterlimit="10"
  />
  <path
    d="M443.289 1226.92C563.258 940.084 681.957 780.349 789.435 692.031C856.821 636.768 919.034 610.629 976.079 597.132C1017.26 587.381 1054.28 585.06 1090.22 585.876C1193.12 588.206 1279.31 615.307 1421.12 561.99C1454.26 549.226 1486.14 533.459 1516 515.073C1694.45 406.675 1837.05 212.679 1943.6 211.706"
    stroke="#2526A9"
    stroke-opacity="0.52"
    stroke-width="5"
    stroke-miterlimit="10"
  />
  <path
    d="M459.332 1236.93C651.35 780.24 843.169 638.236 990.435 599.445C1151.19 557.097 1243.86 641.878 1436.51 571.268C1662.5 488.414 1828.06 211.335 1955.27 203.539"
    stroke="#2526A9"
    stroke-opacity="0.52"
    stroke-width="5"
    stroke-miterlimit="10"
  />
</svg>
